<?xml version="1.0" encoding="UTF-8" standalone="no"?>
<svg
   xmlns:dc="http://purl.org/dc/elements/1.1/"
   xmlns:cc="http://creativecommons.org/ns#"
   xmlns:rdf="http://www.w3.org/1999/02/22-rdf-syntax-ns#"
   xmlns:svg="http://www.w3.org/2000/svg"
   xmlns="http://www.w3.org/2000/svg"
   xmlns:sodipodi="http://sodipodi.sourceforge.net/DTD/sodipodi-0.dtd"
   xmlns:inkscape="http://www.inkscape.org/namespaces/inkscape"
   version="1.1"
   width="18.64"
   id="symbol-windmill"
   viewBox="0 0 480 480"
   height="18.64"
   inkscape:version="0.47pre4 r22446"
   sodipodi:docname="surfing-borderless.svg">
  <metadata
     id="metadata15">
    <rdf:RDF>
      <cc:Work
         rdf:about="">
        <dc:format>image/svg+xml</dc:format>
        <dc:type
           rdf:resource="http://purl.org/dc/dcmitype/StillImage" />
        <dc:title />
      </cc:Work>
    </rdf:RDF>
  </metadata>
  <defs
     id="defs13">
    <inkscape:perspective
       sodipodi:type="inkscape:persp3d"
       inkscape:vp_x="0 : 9.3199997 : 1"
       inkscape:vp_y="0 : 1000 : 0"
       inkscape:vp_z="18.639999 : 9.3199997 : 1"
       inkscape:persp3d-origin="9.3199997 : 6.2133331 : 1"
       id="perspective17" />
    <inkscape:perspective
       id="perspective2839"
       inkscape:persp3d-origin="0.5 : 0.33333333 : 1"
       inkscape:vp_z="1 : 0.5 : 1"
       inkscape:vp_y="0 : 1000 : 0"
       inkscape:vp_x="0 : 0.5 : 1"
       sodipodi:type="inkscape:persp3d" />
  </defs>
  <sodipodi:namedview
     pagecolor="#ffffff"
     bordercolor="#666666"
     borderopacity="1"
     objecttolerance="10"
     gridtolerance="10"
     guidetolerance="10"
     inkscape:pageopacity="0"
     inkscape:pageshadow="2"
     inkscape:window-width="1680"
     inkscape:window-height="975"
     id="namedview11"
     showgrid="false"
     inkscape:zoom="12.714593"
     inkscape:cx="-18.993923"
     inkscape:cy="8.6908013"
     inkscape:window-x="0"
     inkscape:window-y="25"
     inkscape:window-maximized="1"
     inkscape:current-layer="symbol-windmill" />
  <path
     style="fill:#000000;stroke:none;display:inline"
     d="m 194.69963,56.362298 c 18.37054,0 33.24415,14.809027 33.24415,33.099773 0,18.290729 -14.87361,33.099759 -33.24415,33.099759 -18.37053,0 -33.24413,-14.80903 -33.24413,-33.099759 0,-18.290746 14.8736,-33.099773 33.24413,-33.099773 z m 30.30219,74.254772 c 25.87104,2.46972 51.64959,4.29267 77.52063,17.13573 l 60.45729,54.18989 c -2.94863,9.81333 -1.29189,23.41266 -22.06471,18.0145 l -54.57335,-48.18508 c -20.28737,-9.82889 -29.40782,-8.60118 -39.27516,-8.05527 l 62.51664,59.31597 c 22.05702,35.82252 -5.28404,51.78939 -22.21177,52.13948 l -51.33723,-1.02515 28.97831,71.17917 23.38857,6.15127 c 91.67183,21.07519 135.92851,42.04857 155.18837,63.12384 -74.13388,5.7244 -143.74367,0.4902 -212.55658,-7.03005 l -167.397483,-68.24993 47.365543,-34.12498 32.80286,8.49464 -22.65309,-51.55363 c -1.5158,-10.83328 -4.81211,-22.92769 3.97163,-26.0698 l 88.70009,0.87874 -63.54632,-65.17435 -79.579997,80.25963 C 61.343739,250.93635 52.973412,248.30878 51.573314,234.01722 84.564166,200.60113 124.81202,133.16139 150.27606,134.71794 l 74.72576,-4.10087 z m -53.54368,143.53001 23.3886,52.87176 26.18343,6.88356 -26.33054,-58.73011 -23.24149,-1.02515 z"
     id="path2818" />
</svg>
